<svg width="90" height="90" viewBox="0 0 90 90" fill="none" xmlns="http://www.w3.org/2000/svg">
<g id="Group 14">
<g id="Group 13">
<path id="Vector" d="M67.5624 41.0934H65.75V41H45.5V50H58.2159C56.3608 55.2391 51.3759 59 45.5 59C38.0446 59 32 52.9554 32 45.5C32 38.0446 38.0446 32 45.5 32C48.9414 32 52.0723 33.2982 54.4561 35.4189L60.8203 29.0547C56.8018 25.3096 51.4265 23 45.5 23C33.0744 23 23 33.0744 23 45.5C23 57.9256 33.0744 68 45.5 68C57.9256 68 68 57.9256 68 45.5C68 43.9914 67.8447 42.5187 67.5624 41.0934Z" fill="#FFC107"/>
<path id="Vector_2" d="M25.5941 35.0274L32.9865 40.4487C34.9867 35.4965 39.831 32 45.4999 32C48.9412 32 52.0721 33.2982 54.456 35.4189L60.8201 29.0547C56.8016 25.3096 51.4264 23 45.4999 23C36.8576 23 29.3629 27.8791 25.5941 35.0274Z" fill="#FF3D00"/>
<path id="Vector_3" d="M45.5001 68C51.3119 68 56.5926 65.7759 60.5852 62.159L53.6215 56.2663C51.3625 57.9774 48.5545 59 45.5001 59C39.6479 59 34.6787 55.2684 32.8067 50.0608L25.4695 55.7139C29.1932 63.0005 36.7555 68 45.5001 68Z" fill="#4CAF50"/>
<path id="Vector_4" d="M67.5624 41.0934H65.75V41H45.5V50H58.2159C57.3249 52.5166 55.706 54.6867 53.618 56.2674L53.6214 56.2651L60.5851 62.1579C60.0924 62.6056 68 56.75 68 45.5C68 43.9914 67.8447 42.5188 67.5624 41.0934Z" fill="#1976D2"/>
</g>
<circle id="Ellipse 4" cx="45" cy="45" r="44" stroke="#F1F1F1" stroke-width="2"/>
</g>
</svg>
