<svg width="179" height="179" viewBox="0 0 179 179" fill="none" xmlns="http://www.w3.org/2000/svg">
<rect width="179" height="179" rx="89.5" fill="white"/>
<path d="M89.5 0C40.982 0 0 40.982 0 89.5C0 138.018 40.982 179 89.5 179C138.018 179 179 138.018 179 89.5C179 40.982 138.018 0 89.5 0ZM89.5 44.75C104.957 44.75 116.35 56.1344 116.35 71.6C116.35 87.0656 104.957 98.45 89.5 98.45C74.0523 98.45 62.65 87.0656 62.65 71.6C62.65 56.1344 74.0523 44.75 89.5 44.75ZM43.8013 132.209C51.8294 120.395 65.2187 112.519 80.55 112.519H98.45C113.79 112.519 127.171 120.395 135.199 132.209C123.761 144.453 107.534 152.15 89.5 152.15C71.4657 152.15 55.2394 144.453 43.8013 132.209Z" fill="#3A7FC2"/>
</svg>
