<svg width="400" height="312" viewBox="0 0 400 312" fill="none" xmlns="http://www.w3.org/2000/svg">
<path fill-rule="evenodd" clip-rule="evenodd" d="M68 291C67.3826 291.111 66.8826 291.444 66.5 292C66.3091 289.792 65.8091 287.792 65 286C65 285.333 65 284.667 65 284C65.3064 281.115 64.9731 278.448 64 276C45.1711 275.168 26.1711 274.668 7 274.5C7.75244 273.829 8.08577 272.996 8 272C71.5886 183.156 135.422 94.489 199.5 6C200.761 6.25908 201.761 6.92575 202.5 8C226.612 42.4454 251.112 76.6121 276 110.5C277.333 111.167 278.667 111.167 280 110.5C289.882 105.726 299.882 101.226 310 97C310.333 97.3333 310.667 97.6667 311 98C289.314 122.519 267.814 147.185 246.5 172C231.527 150.86 216.36 129.86 201 109C200.498 107.979 199.832 107.812 199 108.5C155.446 169.451 111.78 230.284 68 291Z" fill="#221E1F"/>
<path fill-rule="evenodd" clip-rule="evenodd" d="M357 59C357.543 59.06 357.876 59.3933 358 60C320.42 128.161 282.587 196.161 244.5 264C227.508 243.013 209.842 222.68 191.5 203C151.424 235.736 111.924 269.236 73 303.5C72.1683 304.188 71.5016 304.021 71 303C114.027 243.806 156.86 184.473 199.5 125C215.078 145.823 230.411 166.823 245.5 188C283.25 145.423 320.416 102.423 357 59Z" fill="#EE6916"/>
<path fill-rule="evenodd" clip-rule="evenodd" d="M393 274C368.506 274.998 343.839 275.331 319 275C311.21 263.066 302.71 251.732 293.5 241C283.219 248.943 273.219 257.276 263.5 266C280.238 232.53 297.571 199.197 315.5 166C341.597 201.882 367.431 237.882 393 274Z" fill="#231F20"/>
<path fill-rule="evenodd" clip-rule="evenodd" d="M8 272C8.08577 272.996 7.75244 273.829 7 274.5C26.1711 274.668 45.1711 275.168 64 276C44.3333 276 24.6667 276 5 276C5.52561 274.27 6.52561 272.936 8 272Z" fill="#3E3A3B"/>
<path fill-rule="evenodd" clip-rule="evenodd" d="M393 274C393.789 274.283 394.456 274.783 395 275.5C369.497 276.33 344.163 276.163 319 275C343.839 275.331 368.506 274.998 393 274Z" fill="#5A5758"/>
<path fill-rule="evenodd" clip-rule="evenodd" d="M5 276C24.6667 276 44.3333 276 64 276C64.9731 278.448 65.3064 281.115 65 284C64.0318 281.893 63.6984 279.559 64 277C44.1596 277.33 24.4929 276.997 5 276Z" fill="#E1E1E1"/>
<path fill-rule="evenodd" clip-rule="evenodd" d="M65 286C65.8091 287.792 66.3091 289.792 66.5 292C66.8826 291.444 67.3826 291.111 68 291C67.6788 292.548 66.6788 293.215 65 293C65 290.667 65 288.333 65 286Z" fill="#B6B5B5"/>
</svg>
