<svg xmlns="http://www.w3.org/2000/svg" width="35" height="35" viewBox="0 0 35 35" fill="none">
  <path d="M9.72217 24.7916V10.2083C9.72251 9.95996 9.78626 9.71582 9.90738 9.49902C10.0285 9.28222 10.203 9.09994 10.4143 8.96946C10.6256 8.83899 10.8667 8.76463 11.1148 8.75343C11.3629 8.74224 11.6097 8.79459 11.8319 8.90552L26.4152 16.1972C26.6566 16.3186 26.8595 16.5047 27.0013 16.7348C27.1431 16.9648 27.2182 17.2297 27.2182 17.5C27.2182 17.7702 27.1431 18.0351 27.0013 18.2651C26.8595 18.4952 26.6566 18.6813 26.4152 18.8027L11.8319 26.0944C11.6097 26.2053 11.3629 26.2577 11.1148 26.2465C10.8667 26.2353 10.6256 26.1609 10.4143 26.0305C10.203 25.9 10.0285 25.7177 9.90738 25.5009C9.78626 25.2841 9.72251 25.04 9.72217 24.7916Z" fill="black"/>
</svg>