<svg xmlns="http://www.w3.org/2000/svg" width="30" height="30" viewBox="0 0 30 30" fill="none">
  <g clip-path="url(#clip0_380_4123)">
    <path fill-rule="evenodd" clip-rule="evenodd" d="M17.9462 10.8753L14.9999 13.8216L12.0536 10.8753C11.7284 10.5501 11.2004 10.5501 10.8751 10.8753C10.5496 11.2009 10.5499 11.7286 10.8751 12.0538L13.8214 15.0001L10.8751 17.9464C10.5496 18.272 10.5499 18.7996 10.8751 19.1249C11.2004 19.4502 11.7281 19.4505 12.0536 19.1249L14.9999 16.1786L17.9462 19.1249C18.2715 19.4502 18.7991 19.4505 19.1247 19.1249C19.45 18.7996 19.45 18.2717 19.1247 17.9464L16.1784 15.0001L19.1247 12.0538C19.45 11.7286 19.45 11.2006 19.1247 10.8753C18.7994 10.5501 18.2715 10.5501 17.9462 10.8753ZM22.071 22.0712C18.1657 25.9765 11.8341 25.9765 7.92886 22.0712C4.02356 18.1659 4.02356 11.8343 7.92886 7.92905C11.8339 4.02406 18.1657 4.02376 22.071 7.92905C25.9763 11.8343 25.976 18.1662 22.071 22.0712Z" fill="#5395E9"/>
  </g>
  <defs>
    <clipPath id="clip0_380_4123">
      <rect width="20" height="20" fill="white" transform="translate(0.857788 15.0001) rotate(-45)"/>
    </clipPath>
  </defs>
</svg>