<svg xmlns="http://www.w3.org/2000/svg" width="160" height="42" viewBox="0 0 160 42" fill="none">
  <path d="M4.82609 14.5385V27.4615C4.82609 27.89 4.6566 28.3008 4.35491 28.6038C4.05322 28.9067 3.64404 29.0769 3.21739 29.0769H1.6087C1.18204 29.0769 0.772865 28.9067 0.471176 28.6038C0.169487 28.3008 0 27.89 0 27.4615V14.5385C0 14.11 0.169487 13.6992 0.471176 13.3962C0.772865 13.0933 1.18204 12.9231 1.6087 12.9231H3.21739C3.64404 12.9231 4.05322 13.0933 4.35491 13.3962C4.6566 13.6992 4.82609 14.11 4.82609 14.5385ZM11.2609 0H9.65217C9.22552 0 8.81634 0.170192 8.51465 0.473135C8.21297 0.776078 8.04348 1.18696 8.04348 1.61538V40.3846C8.04348 40.813 8.21297 41.2239 8.51465 41.5269C8.81634 41.8298 9.22552 42 9.65217 42H11.2609C11.6875 42 12.0967 41.8298 12.3984 41.5269C12.7001 41.2239 12.8696 40.813 12.8696 40.3846V1.61538C12.8696 1.18696 12.7001 0.776078 12.3984 0.473135C12.0967 0.170192 11.6875 0 11.2609 0ZM19.3043 6.46154H17.6957C17.269 6.46154 16.8598 6.63173 16.5581 6.93467C16.2564 7.23762 16.087 7.6485 16.087 8.07692V33.9231C16.087 34.3515 16.2564 34.7624 16.5581 35.0653C16.8598 35.3683 17.269 35.5385 17.6957 35.5385H19.3043C19.731 35.5385 20.1402 35.3683 20.4419 35.0653C20.7436 34.7624 20.913 34.3515 20.913 33.9231V8.07692C20.913 7.6485 20.7436 7.23762 20.4419 6.93467C20.1402 6.63173 19.731 6.46154 19.3043 6.46154ZM27.3478 12.9231H25.7391C25.3125 12.9231 24.9033 13.0933 24.6016 13.3962C24.2999 13.6992 24.1304 14.11 24.1304 14.5385V27.4615C24.1304 27.89 24.2999 28.3008 24.6016 28.6038C24.9033 28.9067 25.3125 29.0769 25.7391 29.0769H27.3478C27.7745 29.0769 28.1837 28.9067 28.4853 28.6038C28.787 28.3008 28.9565 27.89 28.9565 27.4615V14.5385C28.9565 14.11 28.787 13.6992 28.4853 13.3962C28.1837 13.0933 27.7745 12.9231 27.3478 12.9231ZM35.3913 9.69231H33.7826C33.356 9.69231 32.9468 9.8625 32.6451 10.1654C32.3434 10.4684 32.1739 10.8793 32.1739 11.3077V30.6923C32.1739 31.1207 32.3434 31.5316 32.6451 31.8346C32.9468 32.1375 33.356 32.3077 33.7826 32.3077H35.3913C35.818 32.3077 36.2271 32.1375 36.5288 31.8346C36.8305 31.5316 37 31.1207 37 30.6923V11.3077C37 10.8793 36.8305 10.4684 36.5288 10.1654C36.2271 9.8625 35.818 9.69231 35.3913 9.69231Z" fill="white"/>
  <path d="M45.8261 14.5385V27.4615C45.8261 27.89 45.6566 28.3008 45.3549 28.6038C45.0532 28.9067 44.644 29.0769 44.2174 29.0769H42.6087C42.182 29.0769 41.7729 28.9067 41.4712 28.6038C41.1695 28.3008 41 27.89 41 27.4615V14.5385C41 14.11 41.1695 13.6992 41.4712 13.3962C41.7729 13.0933 42.182 12.9231 42.6087 12.9231H44.2174C44.644 12.9231 45.0532 13.0933 45.3549 13.3962C45.6566 13.6992 45.8261 14.11 45.8261 14.5385ZM52.2609 0H50.6522C50.2255 0 49.8163 0.170192 49.5147 0.473135C49.213 0.776078 49.0435 1.18696 49.0435 1.61538V40.3846C49.0435 40.813 49.213 41.2239 49.5147 41.5269C49.8163 41.8298 50.2255 42 50.6522 42H52.2609C52.6875 42 53.0967 41.8298 53.3984 41.5269C53.7001 41.2239 53.8696 40.813 53.8696 40.3846V1.61538C53.8696 1.18696 53.7001 0.776078 53.3984 0.473135C53.0967 0.170192 52.6875 0 52.2609 0ZM60.3043 6.46154H58.6957C58.269 6.46154 57.8598 6.63173 57.5581 6.93467C57.2564 7.23762 57.087 7.6485 57.087 8.07692V33.9231C57.087 34.3515 57.2564 34.7624 57.5581 35.0653C57.8598 35.3683 58.269 35.5385 58.6957 35.5385H60.3043C60.731 35.5385 61.1402 35.3683 61.4419 35.0653C61.7436 34.7624 61.913 34.3515 61.913 33.9231V8.07692C61.913 7.6485 61.7436 7.23762 61.4419 6.93467C61.1402 6.63173 60.731 6.46154 60.3043 6.46154ZM68.3478 12.9231H66.7391C66.3125 12.9231 65.9033 13.0933 65.6016 13.3962C65.2999 13.6992 65.1304 14.11 65.1304 14.5385V27.4615C65.1304 27.89 65.2999 28.3008 65.6016 28.6038C65.9033 28.9067 66.3125 29.0769 66.7391 29.0769H68.3478C68.7745 29.0769 69.1837 28.9067 69.4853 28.6038C69.787 28.3008 69.9565 27.89 69.9565 27.4615V14.5385C69.9565 14.11 69.787 13.6992 69.4853 13.3962C69.1837 13.0933 68.7745 12.9231 68.3478 12.9231ZM76.3913 9.69231H74.7826C74.356 9.69231 73.9468 9.8625 73.6451 10.1654C73.3434 10.4684 73.1739 10.8793 73.1739 11.3077V30.6923C73.1739 31.1207 73.3434 31.5316 73.6451 31.8346C73.9468 32.1375 74.356 32.3077 74.7826 32.3077H76.3913C76.818 32.3077 77.2271 32.1375 77.5288 31.8346C77.8305 31.5316 78 31.1207 78 30.6923V11.3077C78 10.8793 77.8305 10.4684 77.5288 10.1654C77.2271 9.8625 76.818 9.69231 76.3913 9.69231Z" fill="white"/>
  <path d="M86.8261 14.5385V27.4615C86.8261 27.89 86.6566 28.3008 86.3549 28.6038C86.0532 28.9067 85.644 29.0769 85.2174 29.0769H83.6087C83.182 29.0769 82.7729 28.9067 82.4712 28.6038C82.1695 28.3008 82 27.89 82 27.4615V14.5385C82 14.11 82.1695 13.6992 82.4712 13.3962C82.7729 13.0933 83.182 12.9231 83.6087 12.9231H85.2174C85.644 12.9231 86.0532 13.0933 86.3549 13.3962C86.6566 13.6992 86.8261 14.11 86.8261 14.5385ZM93.2609 0H91.6522C91.2255 0 90.8163 0.170192 90.5147 0.473135C90.213 0.776078 90.0435 1.18696 90.0435 1.61538V40.3846C90.0435 40.813 90.213 41.2239 90.5147 41.5269C90.8163 41.8298 91.2255 42 91.6522 42H93.2609C93.6875 42 94.0967 41.8298 94.3984 41.5269C94.7001 41.2239 94.8696 40.813 94.8696 40.3846V1.61538C94.8696 1.18696 94.7001 0.776078 94.3984 0.473135C94.0967 0.170192 93.6875 0 93.2609 0ZM101.304 6.46154H99.6957C99.269 6.46154 98.8598 6.63173 98.5581 6.93467C98.2564 7.23762 98.087 7.6485 98.087 8.07692V33.9231C98.087 34.3515 98.2564 34.7624 98.5581 35.0653C98.8598 35.3683 99.269 35.5385 99.6957 35.5385H101.304C101.731 35.5385 102.14 35.3683 102.442 35.0653C102.744 34.7624 102.913 34.3515 102.913 33.9231V8.07692C102.913 7.6485 102.744 7.23762 102.442 6.93467C102.14 6.63173 101.731 6.46154 101.304 6.46154ZM109.348 12.9231H107.739C107.312 12.9231 106.903 13.0933 106.602 13.3962C106.3 13.6992 106.13 14.11 106.13 14.5385V27.4615C106.13 27.89 106.3 28.3008 106.602 28.6038C106.903 28.9067 107.312 29.0769 107.739 29.0769H109.348C109.774 29.0769 110.184 28.9067 110.485 28.6038C110.787 28.3008 110.957 27.89 110.957 27.4615V14.5385C110.957 14.11 110.787 13.6992 110.485 13.3962C110.184 13.0933 109.774 12.9231 109.348 12.9231ZM117.391 9.69231H115.783C115.356 9.69231 114.947 9.8625 114.645 10.1654C114.343 10.4684 114.174 10.8793 114.174 11.3077V30.6923C114.174 31.1207 114.343 31.5316 114.645 31.8346C114.947 32.1375 115.356 32.3077 115.783 32.3077H117.391C117.818 32.3077 118.227 32.1375 118.529 31.8346C118.831 31.5316 119 31.1207 119 30.6923V11.3077C119 10.8793 118.831 10.4684 118.529 10.1654C118.227 9.8625 117.818 9.69231 117.391 9.69231Z" fill="white"/>
  <path d="M127.826 14.5385V27.4615C127.826 27.89 127.657 28.3008 127.355 28.6038C127.053 28.9067 126.644 29.0769 126.217 29.0769H124.609C124.182 29.0769 123.773 28.9067 123.471 28.6038C123.169 28.3008 123 27.89 123 27.4615V14.5385C123 14.11 123.169 13.6992 123.471 13.3962C123.773 13.0933 124.182 12.9231 124.609 12.9231H126.217C126.644 12.9231 127.053 13.0933 127.355 13.3962C127.657 13.6992 127.826 14.11 127.826 14.5385ZM134.261 0H132.652C132.226 0 131.816 0.170192 131.515 0.473135C131.213 0.776078 131.043 1.18696 131.043 1.61538V40.3846C131.043 40.813 131.213 41.2239 131.515 41.5269C131.816 41.8298 132.226 42 132.652 42H134.261C134.688 42 135.097 41.8298 135.398 41.5269C135.7 41.2239 135.87 40.813 135.87 40.3846V1.61538C135.87 1.18696 135.7 0.776078 135.398 0.473135C135.097 0.170192 134.688 0 134.261 0ZM142.304 6.46154H140.696C140.269 6.46154 139.86 6.63173 139.558 6.93467C139.256 7.23762 139.087 7.6485 139.087 8.07692V33.9231C139.087 34.3515 139.256 34.7624 139.558 35.0653C139.86 35.3683 140.269 35.5385 140.696 35.5385H142.304C142.731 35.5385 143.14 35.3683 143.442 35.0653C143.744 34.7624 143.913 34.3515 143.913 33.9231V8.07692C143.913 7.6485 143.744 7.23762 143.442 6.93467C143.14 6.63173 142.731 6.46154 142.304 6.46154ZM150.348 12.9231H148.739C148.312 12.9231 147.903 13.0933 147.602 13.3962C147.3 13.6992 147.13 14.11 147.13 14.5385V27.4615C147.13 27.89 147.3 28.3008 147.602 28.6038C147.903 28.9067 148.312 29.0769 148.739 29.0769H150.348C150.774 29.0769 151.184 28.9067 151.485 28.6038C151.787 28.3008 151.957 27.89 151.957 27.4615V14.5385C151.957 14.11 151.787 13.6992 151.485 13.3962C151.184 13.0933 150.774 12.9231 150.348 12.9231ZM158.391 9.69231H156.783C156.356 9.69231 155.947 9.8625 155.645 10.1654C155.343 10.4684 155.174 10.8793 155.174 11.3077V30.6923C155.174 31.1207 155.343 31.5316 155.645 31.8346C155.947 32.1375 156.356 32.3077 156.783 32.3077H158.391C158.818 32.3077 159.227 32.1375 159.529 31.8346C159.831 31.5316 160 31.1207 160 30.6923V11.3077C160 10.8793 159.831 10.4684 159.529 10.1654C159.227 9.8625 158.818 9.69231 158.391 9.69231Z" fill="white"/>
</svg>